<svg width="424" height="600" viewBox="0 0 424 600" xmlns="http://www.w3.org/2000/svg"><title>ipad</title><defs><linearGradient x1="20.284%" y1="12.485%" x2="66.458%" y2="68.301%" id="a"><stop stop-color="#0A0A0A" offset="0%"/><stop stop-color="#353535" offset="52.63%"/><stop stop-color="#656565" offset="100%"/></linearGradient><linearGradient x1="65.768%" y1="94.245%" x2="43.403%" y2="40.402%" id="b"><stop stop-color="#0A0A0A" offset="0%"/><stop stop-color="#353535" offset="42.51%"/><stop stop-color="#575757" offset="83%"/></linearGradient><linearGradient x1="107.053%" y1="92.95%" x2="7.052%" y2="-7.052%" id="c"><stop stop-color="#2E2E35" offset="24.7%"/><stop stop-color="#CACBCB" offset="27.33%"/><stop stop-color="#CACBCB" offset="50%"/><stop stop-color="#53545A" offset="59.51%"/><stop stop-color="#383840" offset="72.47%"/></linearGradient><linearGradient x1="107.053%" y1="7.057%" x2="8.387%" y2="89.625%" id="d"><stop stop-color="#23222B" offset="0%"/><stop stop-color="#23222B" offset="16.837%"/><stop stop-color="#CACBCB" offset="51.531%"/><stop stop-color="#23222B" offset="66.837%"/><stop stop-color="#23222B" offset="100%"/></linearGradient><linearGradient x1="-7.05%" y1="92.95%" x2="92.952%" y2="-7.052%" id="e"><stop stop-color="#23222B" offset="0%"/><stop stop-color="#CACBCB" offset="50%"/><stop stop-color="#23222B" offset="51%"/><stop stop-color="#6F7074" offset="100%"/></linearGradient><linearGradient x1="0%" y1="50%" y2="50%" id="f"><stop stop-color="#6F7074" offset="0%"/><stop stop-color="#ACAEAF" offset="23.89%"/><stop stop-color="#ACAEAF" offset="73.28%"/><stop stop-color="#383840" offset="100%"/></linearGradient><linearGradient x1="7.053%" y1="107.057%" x2="107.053%" y2="7.057%" id="g"><stop stop-color="#23222B" offset="0%"/><stop stop-color="#CACBCB" offset="50%"/><stop stop-color="#23222B" offset="51%"/><stop stop-color="#2E2E35" offset="100%"/></linearGradient><linearGradient x1="0%" y1="50%" y2="50%" id="h"><stop stop-color="#23222B" offset="0%"/><stop stop-color="#ACAEAF" offset="23.08%"/><stop stop-color="#ACAEAF" offset="72.87%"/><stop stop-color="#23222B" offset="100%"/></linearGradient><linearGradient x1="50.02%" y1="100%" x2="50.02%" y2="0%" id="i"><stop stop-color="#23222B" offset="0%"/><stop stop-color="#A3A4A6" offset="9.31%"/><stop stop-color="#A3A4A6" offset="78.95%"/><stop stop-color="#383840" offset="100%"/></linearGradient><linearGradient x1="50.02%" y1="100%" x2="50.02%" y2="0%" id="j"><stop stop-color="#23222B" offset="0%"/><stop stop-color="#A8ABAC" offset="9.31%"/><stop stop-color="#A8ABAC" offset="78.95%"/><stop stop-color="#383840" offset="100%"/></linearGradient><linearGradient x1="50.02%" y1="100%" x2="50.02%" y2="0%" id="k"><stop stop-color="#23222B" offset="0%"/><stop stop-color="#989A9C" offset="9.31%"/><stop stop-color="#989A9C" offset="78.95%"/><stop stop-color="#383840" offset="100%"/></linearGradient><linearGradient x1="50.02%" y1="50%" x2="50.01%" y2="50%" id="l"><stop stop-color="#2E2E35" offset="0%"/><stop stop-color="#A1A3A5" offset="5%"/><stop stop-color="#A1A3A5" offset="78.95%"/><stop stop-color="#2E2E35" offset="100%"/></linearGradient><linearGradient x1="50.02%" y1="50%" x2="50.01%" y2="50%" id="m"><stop stop-color="#2E2E35" offset="0%"/><stop stop-color="#A1A3A5" offset="3.64%"/><stop stop-color="#A1A3A5" offset="92.31%"/><stop stop-color="#2E2E35" offset="100%"/></linearGradient><linearGradient x1="14.641%" y1="14.647%" x2="85.349%" y2="85.355%" id="n"><stop stop-color="#1A1A1A" offset="0%"/><stop stop-color="#353535" offset="59.92%"/><stop stop-color="#5A5A5A" offset="100%"/></linearGradient></defs><g fill="none" fill-rule="evenodd"><path d="M423.034 23c0-12.65-10.35-23-23-23h-377c-12.649 0-23 10.35-23 23v554c0 12.65 10.351 23 23 23h377c12.65 0 23-10.35 23-23V23z" fill="#000" fill-rule="nonzero"/><g fill-rule="nonzero"><path d="M13.535.595C6.181.595.223 6.554.223 13.907c0 3.677 1.491 7 3.899 9.412L22.945 4.494a13.267 13.267 0 0 0-9.41-3.899z" fill="url(#a)" transform="translate(198 560)"/><path d="M26.846 13.907c0-3.677-1.49-7.005-3.9-9.413L4.123 23.319a13.272 13.272 0 0 0 9.413 3.898c7.35.001 13.31-5.96 13.31-13.31z" fill="url(#b)" transform="translate(198 560)"/><path d="M199.62 573.907c0 6.567 5.347 11.914 11.914 11.914 6.57 0 11.915-5.347 11.915-11.914 0-6.57-5.345-11.915-11.915-11.915-6.567 0-11.914 5.345-11.914 11.915z" fill="#000"/></g><path d="M23.034 597c-11.027 0-20-8.972-20-20V23c0-11.028 8.973-20 20-20h377c11.028 0 20 8.972 20 20v554c0 11.028-8.972 20-20 20h-377z"/><path d="M.034 23h3v554h-3zm420 0h3v554h-3zm3 0c0-12.65-10.35-23-23-23v3c11.028 0 20 8.972 20 20h3zm-400-23c-12.649 0-23 10.35-23 23h3c0-11.028 8.973-20 20-20V0zm-23 577c0 12.65 10.35 23 23 23v-3c-11.028 0-20-8.973-20-20h-3z"/><g fill-rule="nonzero"><path d="M423.034 23c0-12.65-10.35-23-23-23v3c11.028 0 20 8.972 20 20h3z" fill="url(#c)"/><path d="M0 600c12.65 0 23-10.35 23-23h-3c0 11.027-8.972 20-20 20v3z" fill="url(#d)" transform="rotate(90 11.5 588.5)"/><path d="M23.034 0c-12.649 0-23 10.35-23 23h3c0-11.028 8.973-20 20-20V0z" fill="url(#e)"/><path fill="url(#f)" d="M23.034 0h377v3h-377z"/><path d="M400.034 600c12.65 0 23-10.35 23-23h-3c0 11.027-8.972 20-20 20v3z" fill="url(#g)"/><path fill="url(#h)" d="M23.034 597h377v3h-377z"/><path fill="url(#i)" d="M2.034 0h1v554h-1z" transform="translate(0 23)"/><path fill="url(#j)" d="M1.034 0h1v554h-1z" transform="translate(0 23)"/><path fill="url(#k)" d="M.034 0h1v554h-1z" transform="translate(0 23)"/><path fill="url(#l)" d="M2.034 0h1v554h-1zm-1 0h1v554h-1z" transform="translate(420 23)"/><path fill="url(#m)" d="M.034 0h1v554h-1z" transform="translate(420 23)"/></g><g fill-rule="nonzero"><path d="M0 4.654a4.654 4.654 0 1 0 9.308-.002A4.654 4.654 0 0 0 0 4.654" fill="url(#n)" transform="translate(207 23)"/><path d="M209.778 28.724c0-.445.359-.805.802-.805a.81.81 0 0 1 .812.805.806.806 0 1 1-1.614 0" fill="#3F5A83"/></g></g></svg>