<svg width="295" height="600" viewBox="0 0 295 600" xmlns="http://www.w3.org/2000/svg"><title>iphone</title><defs><linearGradient x1="20.287%" y1="12.473%" x2="66.454%" y2="68.307%" id="a"><stop stop-color="#0A0A0A" offset="0%"/><stop stop-color="#353535" offset="52.63%"/><stop stop-color="#656565" offset="100%"/></linearGradient><linearGradient x1="79.623%" y1="83.277%" x2="41.784%" y2="41.775%" id="b"><stop stop-color="#0A0A0A" offset="0%"/><stop stop-color="#353535" offset="42.51%"/><stop stop-color="#575757" offset="83%"/></linearGradient><linearGradient x1="14.641%" y1="14.647%" x2="85.349%" y2="85.355%" id="c"><stop stop-color="#1A1A1A" offset="0%"/><stop stop-color="#353535" offset="59.92%"/><stop stop-color="#5A5A5A" offset="100%"/></linearGradient><linearGradient x1="50.013%" y1=".772%" x2="50.013%" y2="99.945%" id="d"><stop stop-color="#666" offset="0%"/><stop stop-color="#ADADAD" offset="14.17%"/><stop stop-color="#B8B8B8" offset="83.02%"/><stop stop-color="#666" offset="100%"/></linearGradient><linearGradient x1="49.994%" y1="-2.567%" x2="49.994%" y2="103.33%" id="e"><stop stop-color="#4F4F4F" offset="0%"/><stop stop-color="#7A7A7A" offset="14.17%"/><stop stop-color="#858585" offset="83.02%"/><stop stop-color="#404040" offset="100%"/></linearGradient><linearGradient x1="50%" y1="16.313%" x2="50%" y2="81.814%" id="f"><stop stop-color="#FFF" offset="0%"/><stop stop-color="#FFF" offset="22.7%"/><stop stop-color="#161616" offset="100%"/></linearGradient><linearGradient x1="50.009%" y1="-236.485%" x2="50.009%" y2="63.363%" id="g"><stop stop-color="#0E0E0E" offset="0%"/><stop stop-color="#FFF" offset="22.7%"/><stop stop-color="#414141" offset="100%"/></linearGradient><linearGradient x1="50.015%" y1="-122.841%" x2="50.015%" y2="75.63%" id="h"><stop stop-color="#0E0E0E" offset="0%"/><stop stop-color="#FFF" offset="22.7%"/><stop stop-color="#414141" offset="100%"/></linearGradient><linearGradient x1="50.005%" y1="-80.721%" x2="50.005%" y2="80.265%" id="i"><stop stop-color="#0E0E0E" offset="0%"/><stop stop-color="#FFF" offset="22.7%"/><stop stop-color="#414141" offset="100%"/></linearGradient><linearGradient x1="49.998%" y1="-60.303%" x2="49.998%" y2="82.471%" id="j"><stop stop-color="#0E0E0E" offset="0%"/><stop stop-color="#FFF" offset="22.7%"/><stop stop-color="#414141" offset="100%"/></linearGradient><linearGradient x1="50.006%" y1="-54.082%" x2="50.006%" y2="83.172%" id="k"><stop stop-color="#0E0E0E" offset="0%"/><stop stop-color="#FFF" offset="22.7%"/><stop stop-color="#414141" offset="100%"/></linearGradient><linearGradient x1="50.002%" y1="-54.082%" x2="50.002%" y2="83.172%" id="l"><stop stop-color="#0E0E0E" offset="0%"/><stop stop-color="#FFF" offset="22.7%"/><stop stop-color="#414141" offset="100%"/></linearGradient><linearGradient x1="49.992%" y1="-54.082%" x2="49.992%" y2="83.172%" id="m"><stop stop-color="#0E0E0E" offset="0%"/><stop stop-color="#FFF" offset="22.7%"/><stop stop-color="#414141" offset="100%"/></linearGradient><linearGradient x1="50.004%" y1="-54.082%" x2="50.004%" y2="83.172%" id="n"><stop stop-color="#0E0E0E" offset="0%"/><stop stop-color="#FFF" offset="22.7%"/><stop stop-color="#414141" offset="100%"/></linearGradient><linearGradient x1="49.996%" y1="-54.082%" x2="49.996%" y2="83.172%" id="o"><stop stop-color="#0E0E0E" offset="0%"/><stop stop-color="#FFF" offset="22.7%"/><stop stop-color="#414141" offset="100%"/></linearGradient><linearGradient x1="50.008%" y1="-54.082%" x2="50.008%" y2="83.172%" id="p"><stop stop-color="#0E0E0E" offset="0%"/><stop stop-color="#FFF" offset="22.7%"/><stop stop-color="#414141" offset="100%"/></linearGradient><linearGradient x1="49.998%" y1="-54.082%" x2="49.998%" y2="83.172%" id="q"><stop stop-color="#0E0E0E" offset="0%"/><stop stop-color="#FFF" offset="22.7%"/><stop stop-color="#414141" offset="100%"/></linearGradient><linearGradient x1="50%" y1="-54.082%" x2="50%" y2="83.172%" id="r"><stop stop-color="#0E0E0E" offset="0%"/><stop stop-color="#FFF" offset="22.7%"/><stop stop-color="#414141" offset="100%"/></linearGradient><linearGradient x1="49.994%" y1="-54.082%" x2="49.994%" y2="83.172%" id="s"><stop stop-color="#0E0E0E" offset="0%"/><stop stop-color="#FFF" offset="22.7%"/><stop stop-color="#414141" offset="100%"/></linearGradient><linearGradient x1="50.014%" y1="-54.082%" x2="50.014%" y2="83.172%" id="t"><stop stop-color="#0E0E0E" offset="0%"/><stop stop-color="#FFF" offset="22.7%"/><stop stop-color="#414141" offset="100%"/></linearGradient><linearGradient x1="49.99%" y1="-54.082%" x2="49.99%" y2="83.172%" id="u"><stop stop-color="#0E0E0E" offset="0%"/><stop stop-color="#FFF" offset="22.7%"/><stop stop-color="#414141" offset="100%"/></linearGradient><linearGradient x1="49.998%" y1="-55.003%" x2="49.998%" y2="84.657%" id="v"><stop stop-color="#0E0E0E" offset="0%"/><stop stop-color="#FFF" offset="22.7%"/><stop stop-color="#414141" offset="100%"/></linearGradient><linearGradient x1="50.005%" y1="-60.653%" x2="50.005%" y2="93.28%" id="w"><stop stop-color="#0E0E0E" offset="0%"/><stop stop-color="#FFF" offset="22.7%"/><stop stop-color="#414141" offset="100%"/></linearGradient><linearGradient x1="50.022%" y1="-72.321%" x2="50.022%" y2="111.292%" id="x"><stop stop-color="#0E0E0E" offset="0%"/><stop stop-color="#FFF" offset="22.7%"/><stop stop-color="#414141" offset="100%"/></linearGradient><linearGradient x1="50.02%" y1="-99.86%" x2="50.02%" y2="153.717%" id="y"><stop stop-color="#0E0E0E" offset="0%"/><stop stop-color="#FFF" offset="22.7%"/><stop stop-color="#414141" offset="100%"/></linearGradient><linearGradient x1="50.015%" y1="-96.086%" x2="50.015%" y2="147.744%" id="z"><stop stop-color="#0E0E0E" offset="0%"/><stop stop-color="#FFF" offset="22.7%"/><stop stop-color="#414141" offset="100%"/></linearGradient><linearGradient x1="49.992%" y1="-70.963%" x2="49.992%" y2="109.111%" id="A"><stop stop-color="#0E0E0E" offset="0%"/><stop stop-color="#FFF" offset="22.7%"/><stop stop-color="#414141" offset="100%"/></linearGradient><linearGradient x1="49.991%" y1="-59.928%" x2="49.991%" y2="92.217%" id="B"><stop stop-color="#0E0E0E" offset="0%"/><stop stop-color="#FFF" offset="22.7%"/><stop stop-color="#414141" offset="100%"/></linearGradient><linearGradient x1="50.004%" y1="-54.758%" x2="50.004%" y2="84.209%" id="C"><stop stop-color="#0E0E0E" offset="0%"/><stop stop-color="#FFF" offset="22.7%"/><stop stop-color="#414141" offset="100%"/></linearGradient><linearGradient x1="50.012%" y1="-54.082%" x2="50.012%" y2="83.172%" id="D"><stop stop-color="#0E0E0E" offset="0%"/><stop stop-color="#FFF" offset="22.7%"/><stop stop-color="#414141" offset="100%"/></linearGradient><linearGradient x1="49.984%" y1="-54.082%" x2="49.984%" y2="83.172%" id="E"><stop stop-color="#0E0E0E" offset="0%"/><stop stop-color="#FFF" offset="22.7%"/><stop stop-color="#414141" offset="100%"/></linearGradient><linearGradient x1="50.01%" y1="-54.082%" x2="50.01%" y2="83.172%" id="F"><stop stop-color="#0E0E0E" offset="0%"/><stop stop-color="#FFF" offset="22.7%"/><stop stop-color="#414141" offset="100%"/></linearGradient><linearGradient x1="50%" y1="-54.048%" x2="50%" y2="83.176%" id="G"><stop stop-color="#0E0E0E" offset="0%"/><stop stop-color="#FFF" offset="22.7%"/><stop stop-color="#414141" offset="100%"/></linearGradient><linearGradient x1="49.985%" y1="-61.564%" x2="49.985%" y2="82.34%" id="H"><stop stop-color="#0E0E0E" offset="0%"/><stop stop-color="#FFF" offset="22.7%"/><stop stop-color="#414141" offset="100%"/></linearGradient><linearGradient x1="50.017%" y1="-83.372%" x2="50.017%" y2="79.972%" id="I"><stop stop-color="#0E0E0E" offset="0%"/><stop stop-color="#FFF" offset="22.7%"/><stop stop-color="#414141" offset="100%"/></linearGradient><linearGradient x1="49.987%" y1="-128.448%" x2="49.987%" y2="75.052%" id="J"><stop stop-color="#0E0E0E" offset="0%"/><stop stop-color="#FFF" offset="22.7%"/><stop stop-color="#414141" offset="100%"/></linearGradient><linearGradient x1="50.005%" y1="-258.094%" x2="50.005%" y2="61.466%" id="K"><stop stop-color="#0E0E0E" offset="0%"/><stop stop-color="#FFF" offset="22.7%"/><stop stop-color="#414141" offset="100%"/></linearGradient><radialGradient cx="50.009%" cy="49.997%" fx="50.009%" fy="49.997%" r="50.009%" gradientTransform="scale(1 .99985)" id="L"><stop stop-color="#454545" offset="0%"/><stop stop-color="#353535" offset="55.87%"/><stop stop-color="#1A1A1A" offset="100%"/></radialGradient></defs><g fill="none" fill-rule="evenodd"><g fill-rule="nonzero"><path d="M293.68 554.987c-.051 24.75-20.343 45-45.093 45H48.121c-24.75 0-45-20.25-45-45V45c0-24.75 20.25-45 45-45H249.83c24.75 0 44.958 20.25 44.907 45l-1.057 509.987z" fill="#595A60"/><path d="M48.121 597.987c-23.71 0-43-19.29-43-43V45c0-23.71 19.29-43 43-43H249.83c11.436 0 22.209 4.486 30.338 12.631 8.129 8.145 12.593 18.929 12.569 30.365l-1.058 509.987c-.049 23.712-19.38 43.004-43.093 43.004H48.121z" fill="#83848A"/><path d="M48.121 595.987c-22.607 0-41-18.393-41-41V45c0-22.607 18.393-41 41-41H249.83c10.9 0 21.172 4.277 28.922 12.044 7.751 7.767 12.008 18.047 11.985 28.948l-1.058 509.987c-.047 22.611-18.48 41.008-41.093 41.008H48.121z" fill="#111"/><path d="M48.121 593.987c-21.505 0-39-17.495-39-39V45c0-21.505 17.495-39 39-39H249.83c10.365 0 20.134 4.069 27.506 11.457 7.374 7.389 11.423 17.167 11.401 27.531l-1.058 509.988c-.045 21.511-17.582 39.012-39.093 39.012H48.121v-.001z" fill="#000"/><path d="M12.5 554.987V45c0-14.018 6.745-26.487 17.156-34.342C17.441 17.252 9.121 30.171 9.121 45v509.987c0 14.829 8.32 27.748 20.536 34.343-10.412-7.855-17.157-20.325-17.157-34.343z" fill="#323232"/></g><path d="M19.621 530.82V73.167h258.674l-1.173 457.653H19.621zm256.997 1.5c1.1 0 2.002-.9 2.005-2l1.171-456.653a2 2 0 0 0-1.995-2H20.121c-1.1 0-2 .9-2 2V530.32c0 1.1.9 2 2 2h256.497z" fill="#000" fill-rule="nonzero"/><g fill-rule="nonzero"><path d="M24.255.41C11.348.41.891 10.867.891 23.773c0 6.452 2.616 12.286 6.845 16.519L40.771 7.254A23.28 23.28 0 0 0 24.255.41z" fill="url(#a)" transform="translate(124 541)"/><path d="M47.616 23.773a23.273 23.273 0 0 0-6.846-16.52L7.735 40.291a23.285 23.285 0 0 0 16.52 6.843c12.9 0 23.361-10.463 23.361-23.361z" fill="url(#b)" transform="translate(124 541)"/><path d="M127.344 564.772c0 11.526 9.381 20.909 20.909 20.909 11.53 0 20.91-9.383 20.91-20.909 0-11.53-9.379-20.911-20.91-20.911-11.528 0-20.909 9.381-20.909 20.911z" fill="#000"/></g><path d="M96.987 38.031a4.654 4.654 0 1 0 9.308-.002 4.654 4.654 0 0 0-9.308.002" fill="url(#c)" fill-rule="nonzero"/><path d="M99.765 39.101c0-.445.359-.805.802-.805a.81.81 0 0 1 .812.805.806.806 0 1 1-1.614 0" fill="#3F5A83" fill-rule="nonzero"/><g fill-rule="nonzero"><path d="M1.483.986C.669.986.002 1.656.002 2.47L0 41.004c0 .813.667 1.482 1.483 1.482h1.651V.986H1.483z" fill="url(#d)" transform="translate(0 184)"/><path d="M1.634 3.201c0-.792-.273-1.514-.716-2.101a1.492 1.492 0 0 0-.916 1.37L0 41.004c0 .614.381 1.145.918 1.369a3.47 3.47 0 0 0 .716-2.1V3.201z" fill="url(#e)" transform="translate(0 184)"/></g><g fill-rule="nonzero"><path d="M1.483.986C.669.986.002 1.656.002 2.47L0 41.004c0 .813.667 1.482 1.483 1.482h1.651V.986H1.483z" fill="url(#d)" transform="translate(0 130)"/><path d="M1.634 3.201c0-.792-.273-1.514-.716-2.101a1.492 1.492 0 0 0-.916 1.37L0 41.004c0 .614.381 1.145.918 1.369a3.47 3.47 0 0 0 .716-2.1V3.201z" fill="url(#e)" transform="translate(0 130)"/></g><path d="M285.172 554.987V45c0-14.018-6.744-26.487-17.156-34.342C280.23 17.252 288.551 30.171 288.551 45v509.987c0 14.829-8.32 27.748-20.535 34.343 10.412-7.855 17.156-20.325 17.156-34.343z" fill="#212121" fill-rule="nonzero"/><g fill-rule="nonzero"><path fill="#505050" d="M292.737 45.316l-.018 8.611h2l.018-8.611"/><path fill="#6E6E6E" d="M290.719 53.927h2l.018-8.611h-2"/><path fill="#505050" d="M5.122 45.316l.018 8.611h-2l-.018-8.611"/><path fill="#6E6E6E" d="M7.14 53.927h-2l-.018-8.611h2"/></g><path d="M19.621 532.32a1.5 1.5 0 0 1-1.5-1.5V73.167a1.5 1.5 0 0 1 1.5-1.5h258.088a1.5 1.5 0 0 1 1.5 1.5V530.82a1.5 1.5 0 0 1-1.5 1.5H19.621zm258.088-1.5V73.167H19.621V530.82h258.088z" fill="#000" fill-rule="nonzero"/><path d="M128.07 40.244c-1.206 0-2.22-1.02-2.22-2.224v-.158c0-1.205 1.015-2.226 2.22-2.226h41.701c1.204 0 2.223 1.021 2.223 2.226v.158c0 1.205-1.019 2.224-2.223 2.224H128.07z" stroke="#0D0D0D" stroke-width=".136" fill="url(#f)" fill-rule="nonzero"/><path d="M128.07 35.637c-1.206 0-2.22 1.021-2.22 2.225v.158c0 1.204 1.015 2.224 2.22 2.224h41.701c1.2 0 2.226-1.02 2.226-2.224v-.158c0-1.205-1.025-2.225-2.226-2.225H128.07z"/><path d="M125.961 38.705l1.427 1.428c.181.061.373.097.573.109l-2.109-2.108c.01.196.048.388.109.571" fill="url(#g)" fill-rule="nonzero"/><path d="M125.897 37.414l2.829 2.831h.463l-3.187-3.185c-.043.113-.08.232-.105.354" fill="url(#h)" fill-rule="nonzero"/><path d="M126.275 36.568l3.678 3.676h.462l-3.926-3.926a2.687 2.687 0 0 0-.214.25" fill="url(#i)" fill-rule="nonzero"/><path d="M126.91 35.977l4.27 4.268h.46l-4.425-4.427a2.267 2.267 0 0 0-.305.159" fill="url(#j)" fill-rule="nonzero"/><path d="M128.07 35.638c-.086 0-.172.005-.257.014l4.593 4.592h.461l-4.604-4.606h-.193z" fill="url(#k)" fill-rule="nonzero"/><path fill="url(#l)" fill-rule="nonzero" d="M129.024 35.638l4.606 4.606h.464l-4.607-4.606"/><path fill="url(#m)" fill-rule="nonzero" d="M130.25 35.638l4.606 4.606h.468l-4.607-4.606"/><path fill="url(#n)" fill-rule="nonzero" d="M131.479 35.638l4.607 4.606h.461l-4.607-4.606"/><path fill="url(#k)" fill-rule="nonzero" d="M132.703 35.638l4.607 4.606h.464l-4.607-4.606"/><path fill="url(#o)" fill-rule="nonzero" d="M133.929 35.638l4.611 4.606h.462l-4.606-4.606"/><path fill="url(#p)" fill-rule="nonzero" d="M135.156 35.638l4.607 4.606h.464l-4.607-4.606"/><path fill="url(#q)" fill-rule="nonzero" d="M136.386 35.638l4.605 4.606h.463l-4.607-4.606"/><path fill="url(#r)" fill-rule="nonzero" d="M137.612 35.638l4.604 4.606h.464l-4.607-4.606"/><path d="M138.836 35.638l4.61 4.606h.462l-4.605-4.606m.76 0l4.608 4.606h.464l-4.609-4.606" fill="url(#m)" fill-rule="nonzero"/><path fill="url(#s)" fill-rule="nonzero" d="M141.29 35.638l4.607 4.606h.466l-4.61-4.606"/><path fill="url(#t)" fill-rule="nonzero" d="M142.516 35.638l4.608 4.606h.464l-4.609-4.606"/><path d="M143.743 35.638l4.61 4.606h.459l-4.607-4.606m.768 0l4.604 4.606h.466l-4.609-4.606" fill="url(#o)" fill-rule="nonzero"/><path fill="url(#q)" fill-rule="nonzero" d="M146.197 35.638l4.606 4.606h.465l-4.607-4.606"/><path fill="url(#u)" fill-rule="nonzero" d="M147.424 35.638l4.609 4.606h.462l-4.61-4.606"/><path fill="url(#r)" fill-rule="nonzero" d="M148.649 35.638l4.608 4.606h.465l-4.607-4.606"/><path fill="url(#l)" fill-rule="nonzero" d="M149.875 35.638l4.609 4.606h.463l-4.609-4.606"/><path fill="url(#s)" fill-rule="nonzero" d="M151.101 35.638l4.609 4.606h.465l-4.61-4.606"/><path d="M152.328 35.638l4.608 4.606h.464l-4.607-4.606m.767 0l4.601 4.606h.462l-4.605-4.606" fill="url(#k)" fill-rule="nonzero"/><path fill="url(#o)" fill-rule="nonzero" d="M154.787 35.638l4.607 4.606h.458l-4.607-4.606"/><path fill="url(#p)" fill-rule="nonzero" d="M156.013 35.638l4.605 4.606h.458l-4.601-4.606"/><path d="M157.235 35.638l4.609 4.606h.465l-4.609-4.606m.763 0l4.608 4.606h.463l-4.608-4.606" fill="url(#u)" fill-rule="nonzero"/><path fill="url(#l)" fill-rule="nonzero" d="M159.688 35.638l4.61 4.606h.463l-4.608-4.606"/><path fill="url(#n)" fill-rule="nonzero" d="M160.914 35.638l4.609 4.606h.465l-4.609-4.606"/><path fill="url(#s)" fill-rule="nonzero" d="M162.142 35.638l4.609 4.606h.463l-4.608-4.606"/><path fill="url(#k)" fill-rule="nonzero" d="M163.367 35.638l4.607 4.606h.467l-4.61-4.606"/><path fill="url(#p)" fill-rule="nonzero" d="M164.594 35.638l4.61 4.606h.463l-4.608-4.606"/><path d="M165.825 35.637l4.522 4.527a2.19 2.19 0 0 0 .34-.125l-4.406-4.402h-.456z" fill="url(#v)" fill-rule="nonzero"/><path d="M167.049 35.638l4.11 4.107c.084-.069.163-.143.235-.224l-3.886-3.883h-.459z" fill="url(#w)" fill-rule="nonzero"/><path d="M168.274 35.637l3.443 3.443c.058-.101.106-.208.146-.317l-3.128-3.125h-.461v-.001z" fill="url(#x)" fill-rule="nonzero"/><path d="M169.502 35.637l2.492 2.494c0-.038.003-.076.003-.111v-.158c0-.068-.005-.136-.01-.202l-2.012-2.014a2.417 2.417 0 0 0-.209-.009h-.264z" fill="url(#y)" fill-rule="nonzero"/><path d="M128.07 35.638l-.083.001-2.137 2.139v.243c0 .071.002.141.009.21l2.592-2.592h-.381v-.001z" fill="url(#z)" fill-rule="nonzero"/><path d="M129.214 35.638l-3.201 3.202c.04.106.094.21.153.309l3.512-3.511h-.464z" fill="url(#A)" fill-rule="nonzero"/><path d="M130.44 35.638l-3.939 3.94c.077.078.161.149.248.214l4.158-4.155h-.467v.001z" fill="url(#B)" fill-rule="nonzero"/><path d="M131.667 35.638l-4.436 4.435c.114.046.228.087.349.115l4.551-4.55h-.464z" fill="url(#C)" fill-rule="nonzero"/><path d="M132.894 35.638l-4.607 4.606h.463l4.604-4.606m.767 0l-4.607 4.606h.466l4.604-4.606" fill="url(#k)" fill-rule="nonzero"/><path fill="url(#q)" fill-rule="nonzero" d="M135.347 35.638l-4.607 4.606h.463l4.607-4.606"/><path d="M136.571 35.638l-4.607 4.606h.464l4.61-4.606m.762 0l-4.604 4.606h.46l4.607-4.606" fill="url(#u)" fill-rule="nonzero"/><path fill="url(#D)" fill-rule="nonzero" d="M139.025 35.638l-4.606 4.606h.462l4.61-4.606"/><path fill="url(#l)" fill-rule="nonzero" d="M140.256 35.638l-4.609 4.606h.46l4.609-4.606"/><path fill="url(#s)" fill-rule="nonzero" d="M141.479 35.638l-4.606 4.606h.463l4.607-4.606"/><path fill="url(#o)" fill-rule="nonzero" d="M142.705 35.638l-4.607 4.606h.464l4.607-4.606"/><path fill="url(#k)" fill-rule="nonzero" d="M143.933 35.638l-4.607 4.606h.462l4.609-4.606"/><path fill="url(#q)" fill-rule="nonzero" d="M145.162 35.638l-4.61 4.606h.462l4.608-4.606"/><path fill="url(#u)" fill-rule="nonzero" d="M146.387 35.638l-4.608 4.606h.464l4.606-4.606"/><path fill="url(#l)" fill-rule="nonzero" d="M147.615 35.638l-4.612 4.606h.466l4.606-4.606"/><path fill="url(#m)" fill-rule="nonzero" d="M148.843 35.638l-4.612 4.606h.465l4.605-4.606"/><path fill="url(#D)" fill-rule="nonzero" d="M150.065 35.638l-4.604 4.606h.461l4.604-4.606"/><path fill="url(#E)" fill-rule="nonzero" d="M151.296 35.638l-4.608 4.606h.461l4.61-4.606"/><path fill="url(#n)" fill-rule="nonzero" d="M152.519 35.638l-4.606 4.606h.465l4.607-4.606"/><path d="M153.745 35.638l-4.607 4.606h.463l4.612-4.606m.76 0l-4.607 4.606h.465l4.607-4.606" fill="url(#k)" fill-rule="nonzero"/><path fill="url(#p)" fill-rule="nonzero" d="M156.201 35.638l-4.607 4.606h.46l4.609-4.606"/><path fill="url(#r)" fill-rule="nonzero" d="M157.426 35.638l-4.612 4.606h.468l4.609-4.606"/><path fill="url(#D)" fill-rule="nonzero" d="M158.653 35.638l-4.608 4.606h.463l4.606-4.606"/><path fill="url(#l)" fill-rule="nonzero" d="M159.877 35.638l-4.602 4.606h.458l4.607-4.606"/><path fill="url(#n)" fill-rule="nonzero" d="M161.104 35.638l-4.603 4.606h.458l4.608-4.606"/><path fill="url(#k)" fill-rule="nonzero" d="M162.332 35.638l-4.606 4.606h.462l4.605-4.606"/><path d="M163.56 35.638l-4.606 4.606h.462l4.603-4.606m.767 0l-4.604 4.606h.46l4.612-4.606" fill="url(#o)" fill-rule="nonzero"/><path d="M166.014 35.638l-4.612 4.606h.467l4.608-4.606m.762 0l-4.609 4.606h.463l4.609-4.606" fill="url(#r)" fill-rule="nonzero"/><path fill="url(#F)" fill-rule="nonzero" d="M168.467 35.638l-4.609 4.606h.465l4.607-4.606"/><path d="M169.69 35.638l-4.606 4.606h.463l4.58-4.578a2.125 2.125 0 0 0-.36-.029h-.077v.001z" fill="url(#G)" fill-rule="nonzero"/><path d="M166.312 40.245h.463l4.223-4.226a2.068 2.068 0 0 0-.289-.167l-4.397 4.393z" fill="url(#H)" fill-rule="nonzero"/><path d="M167.537 40.244H168l3.61-3.611a1.874 1.874 0 0 0-.204-.259l-3.869 3.87z" fill="url(#I)" fill-rule="nonzero"/><path d="M168.77 40.244h.458l2.741-2.739a2.68 2.68 0 0 0-.098-.367l-3.101 3.106z" fill="url(#J)" fill-rule="nonzero"/><path d="M170.006 40.231c.217-.024.431-.083.633-.17l1.177-1.178a2.16 2.16 0 0 0 .17-.63l-1.98 1.978z" fill="url(#K)" fill-rule="nonzero"/><path d="M144.986 18.031a3.404 3.404 0 1 0 6.807-.001 3.404 3.404 0 0 0-6.807.001" fill="url(#L)" fill-rule="nonzero"/></g></svg>